<?xml version="1.0" encoding="UTF-8" standalone="no"?>
<!-- Created with Inkscape (http://www.inkscape.org/) -->

<svg
   width="48"
   height="32"
   viewBox="0 0 48 32"
   version="1.1"
   id="svg1"
   xml:space="preserve"
   inkscape:version="1.3.2 (1:1.3.2+202404261509+091e20ef0f)"
   sodipodi:docname="graph-3.svg"
   xmlns:inkscape="http://www.inkscape.org/namespaces/inkscape"
   xmlns:sodipodi="http://sodipodi.sourceforge.net/DTD/sodipodi-0.dtd"
   xmlns="http://www.w3.org/2000/svg"
   xmlns:svg="http://www.w3.org/2000/svg"><sodipodi:namedview
     id="namedview1"
     pagecolor="#ffffff"
     bordercolor="#999999"
     borderopacity="1"
     inkscape:showpageshadow="2"
     inkscape:pageopacity="0"
     inkscape:pagecheckerboard="0"
     inkscape:deskcolor="#d1d1d1"
     inkscape:document-units="px"
     inkscape:zoom="10.333333"
     inkscape:cx="18.629032"
     inkscape:cy="12.483871"
     inkscape:window-width="1300"
     inkscape:window-height="699"
     inkscape:window-x="0"
     inkscape:window-y="0"
     inkscape:window-maximized="1"
     inkscape:current-layer="layer1" /><defs
     id="defs1"><inkscape:path-effect
       effect="fillet_chamfer"
       id="path-effect9"
       is_visible="true"
       lpeversion="1"
       nodesatellites_param="F,0,0,1,0,0,0,1 @ F,0,0,1,0,4.3021669,0,1 @ F,0,0,1,0,3.4055066,0,1 @ F,0,0,1,0,3.572286,0,1 @ F,0,0,1,0,0,0,1"
       radius="0"
       unit="px"
       method="auto"
       mode="F"
       chamfer_steps="1"
       flexible="false"
       use_knot_distance="true"
       apply_no_radius="true"
       apply_with_radius="true"
       only_selected="false"
       hide_knots="false" /><inkscape:path-effect
       effect="fillet_chamfer"
       id="path-effect8"
       is_visible="true"
       lpeversion="1"
       nodesatellites_param="F,0,0,1,0,0,0,1 @ F,0,0,1,0,3.1705776,0,1 @ F,0,0,1,0,0,0,1"
       radius="0"
       unit="px"
       method="auto"
       mode="F"
       chamfer_steps="1"
       flexible="false"
       use_knot_distance="true"
       apply_no_radius="true"
       apply_with_radius="true"
       only_selected="false"
       hide_knots="false" /><inkscape:path-effect
       effect="fillet_chamfer"
       id="path-effect7"
       is_visible="true"
       lpeversion="1"
       nodesatellites_param="F,0,0,1,0,0,0,1 @ F,0,0,1,0,1.9046808,0,1 @ F,0,0,1,0,0,0,1"
       radius="0"
       unit="px"
       method="auto"
       mode="F"
       chamfer_steps="1"
       flexible="false"
       use_knot_distance="true"
       apply_no_radius="true"
       apply_with_radius="true"
       only_selected="false"
       hide_knots="false" /><marker
       style="overflow:visible"
       id="ArrowWideRounded"
       refX="0"
       refY="0"
       orient="auto-start-reverse"
       inkscape:stockid="Wide, rounded arrow"
       markerWidth="1"
       markerHeight="1"
       viewBox="0 0 1 1"
       inkscape:isstock="true"
       inkscape:collect="always"
       preserveAspectRatio="xMidYMid"><path
         style="fill:none;stroke:context-stroke;stroke-width:1;stroke-linecap:round"
         d="M 3,-3 0,0 3,3"
         transform="rotate(180,0.125,0)"
         sodipodi:nodetypes="ccc"
         id="path5" /></marker></defs><g
     inkscape:label="Capa 1"
     inkscape:groupmode="layer"
     id="layer1"><g
       fill="none"
       stroke="#000000"
       stroke-width="3"
       id="g1"
       style="fill:#0c1d1d;fill-opacity:1;stroke:#0c1d1d;stroke-opacity:1"
       transform="matrix(0.01561146,0,0,0.01561146,5.9318975,11.038817)"><circle
         cx="254.7"
         cy="128.8"
         r="47.040001"
         id="circle1"
         style="fill:#0c1d1d;fill-opacity:1;stroke:#0c1d1d;stroke-opacity:1" /><path
         d="M 175.22,48.576 98.539,48.5032 20.36,209.1832 256,483.0132 491.64,209.1832 413.458,48.5032 h -76.754 l 76.754,80.339 -76.68,80.266 -161.48,0.0742 -76.754,-80.338 z"
         id="path1"
         style="fill:#0c1d1d;fill-opacity:1;stroke:#0c1d1d;stroke-opacity:1" /></g><g
       style="fill:#000000"
       id="g2"
       transform="matrix(0.28650471,0,0,0.28650471,39.202638,12.901924)"><path
         d="M 11.42,9.49 C 11.23,9.4 10.32,8.95 10.15,8.88 9.98,8.81 9.86,8.79 9.73,8.98 9.6,9.17 9.25,9.58 9.14,9.71 9.03,9.84 8.93,9.85 8.74,9.71 A 5.13,5.13 0 0 1 7.25,8.79 5.25,5.25 0 0 1 6.25,7.5 C 6.14,7.32 6.25,7.22 6.33,7.12 6.41,7.02 6.51,6.91 6.61,6.8 a 1.39,1.39 0 0 0 0.18,-0.31 0.38,0.38 0 0 0 0,-0.33 C 6.79,6.07 6.37,5.16 6.21,4.79 6.05,4.42 5.91,4.47 5.8,4.47 H 5.4 A 0.72,0.72 0 0 0 4.9,4.7 2.1,2.1 0 0 0 4.25,6.25 3.59,3.59 0 0 0 5,8.2 8.32,8.32 0 0 0 8.19,11 c 0.44,0.19 0.78,0.3 1.05,0.39 a 2.53,2.53 0 0 0 1.17,0.07 1.93,1.93 0 0 0 1.26,-0.88 1.67,1.67 0 0 0 0.11,-0.88 C 11.73,9.63 11.61,9.58 11.42,9.49 Z"
         id="path1-5"
         style="fill:#0c1d1d;fill-opacity:1" /><path
         d="M 13.29,2.68 A 7.36,7.36 0 0 0 8,0.5 7.44,7.44 0 0 0 1.59,11.65 l -1,3.85 3.94,-1 a 7.4,7.4 0 0 0 3.55,0.9 H 8 A 7.44,7.44 0 0 0 13.29,2.68 Z M 8,14.12 A 6.12,6.12 0 0 1 4.85,13.25 L 4.63,13.12 2.29,13.73 2.91,11.45 2.77,11.22 A 6.18,6.18 0 0 1 12.37,3.57 6.12,6.12 0 0 1 14.18,7.94 6.19,6.19 0 0 1 8,14.12 Z"
         id="path2"
         style="fill:#0c1d1d;fill-opacity:1" /></g><g
       style="fill:none"
       id="g3"
       transform="matrix(0.19534742,0,0,0.19534742,15.659235,22.235385)"><path
         fill-rule="evenodd"
         clip-rule="evenodd"
         d="m 12,18 c 3.3137,0 6,-2.6863 6,-6 0,-3.31371 -2.6863,-6 -6,-6 -3.31371,0 -6,2.68629 -6,6 0,3.3137 2.68629,6 6,6 z m 0,-2 c 2.2091,0 4,-1.7909 4,-4 0,-2.20914 -1.7909,-4 -4,-4 -2.20914,0 -4,1.79086 -4,4 0,2.2091 1.79086,4 4,4 z"
         fill="#0f0f0f"
         id="path1-3"
         style="fill:#0c1d1d;fill-opacity:1" /><path
         d="m 18,5 c -0.5523,0 -1,0.44772 -1,1 0,0.55228 0.4477,1 1,1 0.5523,0 1,-0.44772 1,-1 0,-0.55228 -0.4477,-1 -1,-1 z"
         fill="#0f0f0f"
         id="path2-5"
         style="fill:#0c1d1d;fill-opacity:1" /><path
         fill-rule="evenodd"
         clip-rule="evenodd"
         d="M 1.65396,4.27606 C 1,5.55953 1,7.23969 1,10.6 v 2.8 c 0,3.3603 0,5.0405 0.65396,6.3239 0.57524,1.129 1.49312,2.0469 2.6221,2.6221 C 5.55953,23 7.23969,23 10.6,23 h 2.8 c 3.3603,0 5.0405,0 6.3239,-0.654 1.129,-0.5752 2.0469,-1.4931 2.6221,-2.6221 C 23,18.4405 23,16.7603 23,13.4 V 10.6 C 23,7.23969 23,5.55953 22.346,4.27606 21.7708,3.14708 20.8529,2.2292 19.7239,1.65396 18.4405,1 16.7603,1 13.4,1 H 10.6 C 7.23969,1 5.55953,1 4.27606,1.65396 3.14708,2.2292 2.2292,3.14708 1.65396,4.27606 Z M 13.4,3 H 10.6 C 8.88684,3 7.72225,3.00156 6.82208,3.0751 5.94524,3.14674 5.49684,3.27659 5.18404,3.43597 4.43139,3.81947 3.81947,4.43139 3.43597,5.18404 3.27659,5.49684 3.14674,5.94524 3.0751,6.82208 3.00156,7.72225 3,8.88684 3,10.6 v 2.8 c 0,1.7132 0.00156,2.8777 0.0751,3.7779 0.07164,0.8769 0.20149,1.3253 0.36087,1.6381 0.3835,0.7526 0.99542,1.3645 1.74807,1.748 0.3128,0.1594 0.7612,0.2893 1.63804,0.3609 C 7.72225,20.9984 8.88684,21 10.6,21 h 2.8 c 1.7132,0 2.8777,-0.0016 3.7779,-0.0751 0.8769,-0.0716 1.3253,-0.2015 1.6381,-0.3609 0.7526,-0.3835 1.3645,-0.9954 1.748,-1.748 0.1594,-0.3128 0.2893,-0.7612 0.3609,-1.6381 C 20.9984,16.2777 21,15.1132 21,13.4 V 10.6 C 21,8.88684 20.9984,7.72225 20.9249,6.82208 20.8533,5.94524 20.7234,5.49684 20.564,5.18404 20.1805,4.43139 19.5686,3.81947 18.816,3.43597 18.5032,3.27659 18.0548,3.14674 17.1779,3.0751 16.2777,3.00156 15.1132,3 13.4,3 Z"
         fill="#0f0f0f"
         id="path3"
         style="fill:#0c1d1d;fill-opacity:1" /></g><g
       style="fill:none"
       id="g4"
       transform="matrix(0.20756851,0,0,0.20756851,26.953372,3.3742198)"><path
         fill-rule="evenodd"
         clip-rule="evenodd"
         d="m 14.8486,5.65845 c -1.7044,0 -3.086,1.38165 -3.086,3.08601 0,0.20858 0.0205,0.41135 0.0594,0.60673 0.0626,0.3147 -0.0296,0.64034 -0.2479,0.87551 -0.2183,0.2352 -0.5362,0.3513 -0.8547,0.3122 C 8.51116,10.268 6.50248,9.35556 4.88498,7.9954 4.91649,8.59732 5.12515,9.23671 5.57799,9.90654 l 0.67878,1.00406 -1.11466,0.4757 -0.21507,0.0918 c 0.15986,0.1828 0.35206,0.3706 0.56665,0.5551 0.24348,0.2093 0.47878,0.3833 0.65357,0.5049 0.08682,0.0604 0.15726,0.1069 0.20445,0.1374 0.02356,0.0152 0.04123,0.0263 0.05212,0.0331 l 0.01112,0.0069 2.4e-4,2e-4 3.2e-4,2e-4 2.7e-4,2e-4 4.1e-4,2e-4 2.8e-4,2e-4 1.54801,0.9385 -1.62051,0.8103 c -0.08023,0.0401 -0.1603,0.0759 -0.24004,0.1077 0.32531,0.2741 0.72124,0.5265 1.14247,0.7256 l 1.38983,0.657 -1.16397,1.0042 c -0.63536,0.5482 -1.27448,0.9568 -2.1028,1.1728 1.22735,0.6549 2.63369,1.027 4.12995,1.027 4.80509,0 8.67519,-3.8346 8.67519,-8.534 V 10.1059 L 18.5998,9.80721 C 19.2636,9.34107 19.7329,8.71068 20.0689,7.99004 H 18.5398 17.9084 L 17.637,7.41994 C 17.1401,6.37633 16.0772,5.65845 14.8486,5.65845 Z M 3.56882,12.9581 c -0.18851,0.2159 -0.27789,0.5061 -0.23689,0.7972 0.11281,0.801 0.59248,1.4909 1.12251,2.0175 0.14394,0.143 0.29788,0.2803 0.45952,0.4112 -0.0247,0.0069 -0.04959,0.0135 -0.07471,0.0198 -0.48136,0.1205 -1.12999,0.1456 -2.2117,0.0396 -0.41821,-0.041 -0.81741,0.1839 -0.99914,0.5628 -0.18173,0.3788 -0.10721,0.8309 0.18651,1.1314 1.94201,1.9869 4.66921,3.222 7.68449,3.222 5.71259,0 10.39839,-4.4357 10.66339,-10.0336 1.2893,-1.0831 1.9348,-2.54927 2.283,-3.88337 C 22.5241,6.94292 22.459,6.62387 22.2696,6.37873 22.0803,6.13359 21.788,5.99004 21.4783,5.99004 h -2.3536 c -0.9046,-1.40151 -2.481,-2.33159 -4.2761,-2.33159 -2.669,0 -4.85788,2.0559 -5.0693,4.67047 C 7.91032,7.84456 6.2705,6.78758 5.05863,5.35408 4.83759,5.09261 4.49814,4.9624 4.15894,5.00897 3.81974,5.05554 3.52794,5.27241 3.38555,5.58378 2.78087,6.90597 2.66434,8.43104 3.34116,9.98046 l -0.2337,0.09974 c -0.4628,0.1975 -0.70673,0.7082 -0.56956,1.1923 0.18486,0.6525 0.60339,1.2286 1.03092,1.6856 z"
         fill="#000000"
         id="path1-1"
         style="fill:#0c1d1d;fill-opacity:1" /></g><path
       style="fill:none;fill-opacity:1;stroke:#0c1d1d;stroke-width:0.25;stroke-linecap:round;stroke-linejoin:round;stroke-miterlimit:10;stroke-opacity:1;marker-end:url(#ArrowWideRounded)"
       d="m 11.767774,16.441915 h 13.75768 a 4.3021669,4.3021669 45 0 1 4.302167,4.302167 v 4.002251 a 3.4055066,3.4055066 45 0 0 3.405507,3.405507 h 1.458573 a 3.572286,3.572286 135 0 0 3.572286,-3.572286 v -2.863198"
       id="path8"
       inkscape:path-effect="#path-effect9"
       inkscape:original-d="M 11.767774,16.441915 H 29.827621 V 28.15184 h 8.436366 v -6.435484" /><path
       style="fill:#ffe74c;stroke:#ffe74c;stroke-width:0.25;stroke-linecap:round;stroke-linejoin:round;stroke-miterlimit:10;marker-end:url(#ArrowWideRounded);fill-opacity:1;stroke-opacity:1"
       d="M 11.767773,16.441915 H 37.099672"
       id="path4" /><path
       style="fill:none;stroke:#759fbc;stroke-width:0.25;stroke-linecap:round;stroke-linejoin:round;stroke-miterlimit:10;marker-end:url(#ArrowWideRounded);stroke-opacity:1"
       d="m 11.767774,16.441915 h 14.260615 a 3.1705776,3.1705776 135 0 0 3.170578,-3.170578 l 0,-3.3436656"
       id="path6"
       inkscape:path-effect="#path-effect8"
       inkscape:original-d="M 11.767774,16.441915 H 29.198967 V 9.9276714" /><path
       style="fill:none;stroke:#0c1d1d;stroke-width:0.25;stroke-linecap:round;stroke-linejoin:round;stroke-miterlimit:10;marker-end:url(#ArrowWideRounded);stroke-opacity:1"
       d="m 11.767774,16.441915 h 4.113961 a 1.9046808,1.9046808 45 0 1 1.904681,1.904681 v 1.587376"
       id="path7"
       inkscape:path-effect="#path-effect7"
       inkscape:original-d="m 11.767774,16.441915 h 6.018642 v 3.492057" /></g></svg>
